Coordinates
version=1
nRows=17
nColumns=40
inDegrees=yes

Units are S.I. units (second, meters, Newtons, ...)
Angles are in degrees.

endheader
time	pelvis_tilt	pelvis_list	pelvis_rotation	pelvis_tx	pelvis_ty	pelvis_tz	hip_flexion_r	hip_adduction_r	hip_rotation_r	knee_angle_r	knee_angle_r_beta	ankle_angle_r	subtalar_angle_r	mtp_angle_r	hip_flexion_l	hip_adduction_l	hip_rotation_l	knee_angle_l	knee_angle_l_beta	ankle_angle_l	subtalar_angle_l	mtp_angle_l	lumbar_extension	lumbar_bending	lumbar_rotation	arm_flex_r	arm_add_r	arm_rot_r	elbow_flex_r	pro_sup_r	wrist_flex_r	wrist_dev_r	arm_flex_l	arm_add_l	arm_rot_l	elbow_flex_l	pro_sup_l	wrist_flex_l	wrist_dev_l
      0.00000000	     -2.81362102	      3.56858876	     -4.63060220	     -1.09750103	      0.95206287	      1.41969125	     18.04734064	    -18.11243295	    -22.28050734	    -44.67505607	     -0.77972682	      2.56873557	    -14.88423448	     16.61217372	      5.62397534	     -8.34965933	     11.39798096	    -10.63928804	     -0.18569061	      3.77975457	      5.63367402	     -4.97042904	     -3.30830186	     -3.64126809	     -0.19178216	      5.12167933	    -10.81807265	    -11.25187796	     27.38582596	     89.95437384	      0.00000000	      0.00000000	      7.16418289	     11.05982545	      3.02830893	     24.88735027	     89.95437384	      0.00000000	      0.00000000
      0.01000000	     -2.94864002	      3.55903428	     -4.12324841	     -1.09164870	      0.95186959	      1.41936887	     19.09801980	    -17.91060266	    -21.92422596	    -43.73469476	     -0.76331442	      2.78271693	    -14.58716720	     16.33461423	      5.32538029	     -8.37709385	     11.34196822	    -10.61126601	     -0.18520153	      3.93912647	      5.37339713	     -4.97203213	     -3.22556937	     -3.63294771	     -0.55490612	      5.01923561	    -10.82252750	    -11.29423451	     27.38405592	     89.95437384	      0.00000000	      0.00000000	      8.00869609	     11.16047724	      2.93172199	     25.48817914	     89.95437384	      0.00000000	      0.00000000
      0.02000000	     -2.89282093	      3.08633822	     -3.42603501	     -1.08609169	      0.95214606	      1.41927733	     19.65058460	    -17.12724441	    -21.72029354	    -42.44898216	     -0.74087450	      2.85063477	    -14.34824265	     16.19960391	      4.75655689	     -7.91364945	     10.57504379	    -10.50527540	     -0.18335164	      4.16491733	      4.97290153	     -5.22788757	     -3.48597412	     -3.14934087	     -0.97787268	      5.06125486	    -10.66107646	    -12.22019708	     27.14748888	     89.95437384	      0.00000000	      0.00000000	      8.82518416	     11.31557428	      2.42606082	     26.36114251	     89.95437384	      0.00000000	      0.00000000
      0.03000000	     -3.04578968	      3.10765419	     -2.96075761	     -1.08015113	      0.95177121	      1.41921343	     20.68467223	    -16.93647347	    -21.27051934	    -41.41400006	     -0.72281066	      3.01908537	    -13.88441996	     15.91937287	      4.49575131	     -7.94117868	     10.58513029	    -10.49398596	     -0.18315461	      4.37922287	      4.73596956	     -5.24361263	     -3.38701026	     -3.18360499	     -1.33014423	      4.91254310	    -10.63324132	    -12.21624489	     27.16161675	     89.95437384	      0.00000000	      0.00000000	      9.58396848	     11.45133437	      2.30166041	     26.98694772	     89.95437384	      0.00000000	      0.00000000
      0.04000000	     -2.89218918	      2.75960012	     -2.59552128	     -1.07418058	      0.95200908	      1.41969084	     21.18217980	    -16.19540179	    -20.77244118	    -40.00504336	     -0.69821972	      3.18607559	    -13.29687597	     15.74142859	      3.71779086	     -7.57334732	     10.21987580	    -10.17586722	     -0.17760239	      4.57883488	      4.32089223	     -5.41654770	     -3.66719035	     -2.84539794	     -1.46348500	      4.90677721	    -10.54300342	    -12.82909281	     26.88445185	     89.95437384	      0.00000000	      0.00000000	     10.33530485	     11.61238818	      1.75998369	     27.79100946	     89.95437384	      0.00000000	      0.00000000
      0.05000000	     -3.03132950	      2.79936627	     -2.14867108	     -1.06838392	      0.95149159	      1.41966997	     22.13824035	    -16.05961650	    -20.39253524	    -38.83212641	     -0.67774846	      3.23371349	    -12.72317014	     15.49116132	      3.48218643	     -7.60749807	     10.25416573	    -10.19953696	     -0.17801550	      4.80293065	      4.09716706	     -5.43575070	     -3.60263499	     -2.88798599	     -1.77308438	      4.71858108	    -10.53420327	    -12.86021532	     26.92788272	     89.95437384	      0.00000000	      0.00000000	     11.02372013	     11.72261140	      1.62870199	     28.43061121	     89.95437384	      0.00000000	      0.00000000
      0.06000000	     -3.13649652	      2.74489788	     -1.74721432	     -1.06231334	      0.95104365	      1.41992459	     22.93201102	    -15.73745745	    -19.93291411	    -37.45602165	     -0.65373090	      3.27159498	    -12.05109568	     15.27287302	      3.11737081	     -7.53052673	     10.08633560	    -10.12038508	     -0.17663404	      5.06974062	      3.82137588	     -5.47919687	     -3.54801138	     -2.83635463	     -2.02157783	      4.54046868	    -10.52730176	    -12.94936173	     26.81637110	     89.95437384	      0.00000000	      0.00000000	     11.65296489	     11.85576214	      1.40692881	     29.11297038	     89.95437384	      0.00000000	      0.00000000
      0.07000000	     -2.46039393	      2.23544827	     -1.35940624	     -1.05600265	      0.95205131	      1.42058820	     22.50759137	    -14.84525011	    -19.64053926	    -35.56086618	     -0.62065420	      3.16400820	    -11.07192996	     15.11463119	      1.71950236	     -6.94995815	      9.79031177	     -9.74661848	     -0.17011058	      5.17930184	      3.29830848	     -5.79923582	     -4.44997124	     -2.31285261	     -2.12338854	      4.59616108	    -10.39694743	    -13.95312626	     26.47260650	     89.95437384	      0.00000000	      0.00000000	     12.41050926	     12.02367207	      0.53925070	     29.93199209	     89.95437384	      0.00000000	      0.00000000
      0.08000000	     -2.56566122	      2.17351537	     -1.01405256	     -1.04989399	      0.95146523	      1.42094763	     23.23119159	    -14.52752482	    -19.24971406	    -34.04962873	     -0.59427813	      3.04772877	    -10.26218015	     14.89720266	      1.37163253	     -6.84687984	      9.62153971	     -9.67868751	     -0.16892496	      5.43422361	      2.94327976	     -5.93485327	     -4.39336998	     -2.23432791	     -2.31998773	      4.45151734	    -10.39896173	    -14.00095815	     26.25128053	     89.95437384	      0.00000000	      0.00000000	     12.98712379	     12.11530664	      0.30479944	     30.61907957	     89.95437384	      0.00000000	      0.00000000
      0.09000000	     -2.49922990	      2.04604738	     -0.57720555	     -1.04340435	      0.95119229	      1.42139017	     23.56406953	    -14.16772072	    -19.03419513	    -32.31960163	     -0.56408346	      2.85725555	     -9.32337795	     14.73445646	      0.81159968	     -6.64452014	      9.49543805	     -9.62839688	     -0.16804723	      5.61679205	      2.58841286	     -6.09787050	     -4.50058461	     -2.09774596	     -2.60458120	      4.35012265	    -10.35073403	    -14.26730607	     25.91708818	     89.95437384	      0.00000000	      0.00000000	     13.46204645	     12.22887951	      0.04840998	     31.31588090	     89.95437384	      0.00000000	      0.00000000
      0.10000000	     -2.58986705	      2.16039429	     -0.23697149	     -1.03688824	      0.95043927	      1.42164473	     24.25327898	    -14.17234776	    -19.00971918	    -30.92807015	     -0.53979666	      2.89593291	     -8.86861379	     14.59591150	      0.44975785	     -6.72894454	      9.54301239	     -9.58873448	     -0.16735499	      5.90780685	      2.42117816	     -6.17420986	     -4.40013037	     -2.19332305	     -2.78680570	      4.09938701	    -10.36494356	    -14.31087277	     25.71892731	     89.95437384	      0.00000000	      0.00000000	     13.94701863	     12.25462391	     -0.07916368	     31.80043881	     89.95437384	      0.00000000	      0.00000000
      0.11000000	     -2.02798644	      1.64993944	      0.30779189	     -1.03018293	      0.95103990	      1.42219237	     23.63083882	    -13.42179352	    -19.24136090	    -28.66685759	     -0.50033105	      2.51944459	     -7.47297689	     14.28924661	     -0.69251110	     -6.07547972	      9.10107722	     -9.50734290	     -0.16593444	      6.06496945	      1.93802355	     -6.70619376	     -5.11847498	     -1.60962282	     -3.15696349	      4.17992805	    -10.26823349	    -15.04814401	     25.18411157	     89.95437384	      0.00000000	      0.00000000	     14.42008308	     12.33397682	     -0.38907135	     32.58468002	     89.95437384	      0.00000000	      0.00000000
      0.12000000	     -2.24097696	      1.82421931	      0.61447304	     -1.02365399	      0.94991688	      1.42248201	     24.44910662	    -13.50308269	    -19.22621501	    -27.34376669	     -0.47723876	      2.63936347	     -7.03791756	     14.14077519	     -0.92707283	     -6.22117256	      9.19948247	     -9.45547766	     -0.16502922	      6.32933836	      1.79530014	     -6.77799575	     -4.87451300	     -1.75433848	     -3.33367618	      3.91636691	    -10.30500432	    -15.03303076	     24.96562538	     89.95437384	      0.00000000	      0.00000000	     14.80655097	     12.33728758	     -0.45342140	     32.97714413	     89.95437384	      0.00000000	      0.00000000
      0.13000000	     -2.32919030	      1.70112043	      0.98801122	     -1.01728924	      0.94920600	      1.42319248	     24.78093964	    -13.10432871	    -18.87201666	    -25.37676617	     -0.44290812	      2.19909843	     -5.57857950	     13.93915192	     -1.24983927	     -6.00803879	      8.73374097	     -9.54408553	     -0.16657572	      6.53577723	      1.49114724	     -6.99499736	     -4.83578045	     -1.60992284	     -3.60750224	      3.90323469	    -10.22583578	    -15.35650849	     24.43183065	     89.95437384	      0.00000000	      0.00000000	     15.03340140	     12.48156224	     -0.76303516	     33.70560222	     89.95437384	      0.00000000	      0.00000000
      0.14000000	     -2.15772210	      1.49157407	      1.35710140	     -1.01050201	      0.94877329	      1.42367594	     24.81023401	    -12.79691863	    -19.37140622	    -23.61347670	     -0.41213292	      1.95290442	     -4.26150357	     13.44983227	     -1.86312851	     -5.69321524	      8.62704161	     -9.61315515	     -0.16778121	      6.89583466	      1.40769374	     -7.47633497	     -5.06171190	     -1.30733305	     -3.80527265	      3.81293199	    -10.23060549	    -15.93579552	     24.00739795	     89.95437384	      0.00000000	      0.00000000	     15.36206924	     12.47062922	     -0.92649705	     34.14580910	     89.95437384	      0.00000000	      0.00000000
      0.15000000	     -2.01421740	      1.39425578	      1.83814926	     -1.00321078	      0.94821057	      1.42431093	     24.83538241	    -12.69465011	    -20.15676744	    -22.03002914	     -0.38449654	      1.93441205	     -2.58597071	     12.54423122	     -2.50119479	     -5.44377487	      8.56776161	     -9.63294663	     -0.16812664	      7.01561130	      0.91812543	     -8.26069917	     -5.19321997	     -1.15826120	     -4.14608219	      3.62720279	    -10.16306903	    -16.41833558	     23.62501941	     89.95437384	      0.00000000	      0.00000000	     15.49101170	     12.53721890	     -1.11120278	     34.73741956	     89.95437384	      0.00000000	      0.00000000
      0.16000000	     -2.25356717	      1.49685323	      2.06722826	     -0.99669347	      0.94692966	      1.42505350	     25.51883132	    -12.63743835	    -20.16227844	    -20.60461004	     -0.35961829	      1.55263820	     -1.62761778	     12.28072481	     -2.63979827	     -5.47831493	      8.46530509	     -9.72237585	     -0.16968747	      7.24670588	      0.78030717	     -8.49560670	     -4.95675435	     -1.24317281	     -4.26412802	      3.47339194	    -10.16354526	    -16.57564112	     23.24375847	     89.95437384	      0.00000000	      0.00000000	     15.66837902	     12.53667187	     -1.17275552	     35.17672371	     89.95437384	      0.00000000	      0.00000000
